<mxfile host="app.diagrams.net" modified="2023-10-03T09:56:59.228Z" agent="Mozilla/5.0 (Windows NT 10.0; Win64; x64) AppleWebKit/537.36 (KHTML, like Gecko) Chrome/116.0.0.0 Safari/537.36" etag="F-gLmjo_ObooxKaBe8Lp" version="21.3.3" type="device">
  <diagram name="Страница — 1" id="7_0qfTzgPKl36qv4Fy9f">
    <mxGraphModel dx="1050" dy="574" grid="1" gridSize="10" guides="1" tooltips="1" connect="1" arrows="1" fold="1" page="1" pageScale="1" pageWidth="827" pageHeight="1169" math="0" shadow="0">
      <root>
        <mxCell id="0" />
        <mxCell id="1" parent="0" />
        <mxCell id="O_YwxqwIbAvKUzlaajwg-3" style="edgeStyle=orthogonalEdgeStyle;rounded=0;orthogonalLoop=1;jettySize=auto;html=1;" parent="1" source="O_YwxqwIbAvKUzlaajwg-1" edge="1">
          <mxGeometry relative="1" as="geometry">
            <mxPoint x="250" y="110" as="targetPoint" />
          </mxGeometry>
        </mxCell>
        <mxCell id="O_YwxqwIbAvKUzlaajwg-1" value="Start" style="rounded=1;whiteSpace=wrap;html=1;" parent="1" vertex="1">
          <mxGeometry x="200" y="50" width="100" height="30" as="geometry" />
        </mxCell>
        <mxCell id="O_YwxqwIbAvKUzlaajwg-5" style="edgeStyle=orthogonalEdgeStyle;rounded=0;orthogonalLoop=1;jettySize=auto;html=1;" parent="1" source="O_YwxqwIbAvKUzlaajwg-4" edge="1">
          <mxGeometry relative="1" as="geometry">
            <mxPoint x="250" y="230" as="targetPoint" />
          </mxGeometry>
        </mxCell>
        <mxCell id="O_YwxqwIbAvKUzlaajwg-4" value="array1 = [&#39;1234&#39;,&#39;-2&#39;,&#39;computer science&#39;]&lt;br&gt;array2= []&lt;br&gt;count = 0&lt;br&gt;i= 0" style="shape=parallelogram;perimeter=parallelogramPerimeter;whiteSpace=wrap;html=1;fixedSize=1;" parent="1" vertex="1">
          <mxGeometry x="170" y="110" width="160" height="80" as="geometry" />
        </mxCell>
        <mxCell id="O_YwxqwIbAvKUzlaajwg-13" style="edgeStyle=orthogonalEdgeStyle;rounded=0;orthogonalLoop=1;jettySize=auto;html=1;" parent="1" source="O_YwxqwIbAvKUzlaajwg-6" edge="1">
          <mxGeometry relative="1" as="geometry">
            <mxPoint x="410" y="285" as="targetPoint" />
          </mxGeometry>
        </mxCell>
        <mxCell id="PTh-mmywezzikDLuVWZy-18" style="edgeStyle=orthogonalEdgeStyle;rounded=0;orthogonalLoop=1;jettySize=auto;html=1;" edge="1" parent="1" source="O_YwxqwIbAvKUzlaajwg-6">
          <mxGeometry relative="1" as="geometry">
            <mxPoint x="247.5" y="380" as="targetPoint" />
          </mxGeometry>
        </mxCell>
        <mxCell id="O_YwxqwIbAvKUzlaajwg-6" value="i &amp;lt; array1.Length" style="rhombus;whiteSpace=wrap;html=1;" parent="1" vertex="1">
          <mxGeometry x="195" y="240" width="105" height="90" as="geometry" />
        </mxCell>
        <mxCell id="O_YwxqwIbAvKUzlaajwg-12" style="edgeStyle=orthogonalEdgeStyle;rounded=0;orthogonalLoop=1;jettySize=auto;html=1;" parent="1" source="O_YwxqwIbAvKUzlaajwg-9" edge="1">
          <mxGeometry relative="1" as="geometry">
            <mxPoint x="70" y="320" as="targetPoint" />
          </mxGeometry>
        </mxCell>
        <mxCell id="PTh-mmywezzikDLuVWZy-13" style="edgeStyle=orthogonalEdgeStyle;rounded=0;orthogonalLoop=1;jettySize=auto;html=1;entryX=0.371;entryY=1.05;entryDx=0;entryDy=0;entryPerimeter=0;" edge="1" parent="1" source="O_YwxqwIbAvKUzlaajwg-9" target="PTh-mmywezzikDLuVWZy-6">
          <mxGeometry relative="1" as="geometry" />
        </mxCell>
        <mxCell id="O_YwxqwIbAvKUzlaajwg-9" value="array1[i].Length &amp;lt;=3" style="rhombus;whiteSpace=wrap;html=1;" parent="1" vertex="1">
          <mxGeometry x="200" y="390" width="100" height="80" as="geometry" />
        </mxCell>
        <mxCell id="O_YwxqwIbAvKUzlaajwg-11" style="edgeStyle=orthogonalEdgeStyle;rounded=0;orthogonalLoop=1;jettySize=auto;html=1;" parent="1" source="O_YwxqwIbAvKUzlaajwg-10" edge="1">
          <mxGeometry relative="1" as="geometry">
            <mxPoint x="190" y="285" as="targetPoint" />
          </mxGeometry>
        </mxCell>
        <mxCell id="O_YwxqwIbAvKUzlaajwg-10" value="array2[count] = array1[i]&lt;br&gt;count++&lt;br&gt;i++" style="rounded=0;whiteSpace=wrap;html=1;" parent="1" vertex="1">
          <mxGeometry x="20" y="255" width="120" height="60" as="geometry" />
        </mxCell>
        <mxCell id="O_YwxqwIbAvKUzlaajwg-14" value="End" style="rounded=1;whiteSpace=wrap;html=1;" parent="1" vertex="1">
          <mxGeometry x="580" y="262.5" width="90" height="45" as="geometry" />
        </mxCell>
        <mxCell id="O_YwxqwIbAvKUzlaajwg-15" value="No" style="text;html=1;align=center;verticalAlign=middle;resizable=0;points=[];autosize=1;strokeColor=none;fillColor=none;" parent="1" vertex="1">
          <mxGeometry x="320" y="250" width="40" height="30" as="geometry" />
        </mxCell>
        <mxCell id="O_YwxqwIbAvKUzlaajwg-16" value="Yes" style="text;html=1;align=center;verticalAlign=middle;resizable=0;points=[];autosize=1;strokeColor=none;fillColor=none;" parent="1" vertex="1">
          <mxGeometry x="200" y="345" width="40" height="30" as="geometry" />
        </mxCell>
        <mxCell id="O_YwxqwIbAvKUzlaajwg-17" value="Yes" style="text;html=1;align=center;verticalAlign=middle;resizable=0;points=[];autosize=1;strokeColor=none;fillColor=none;" parent="1" vertex="1">
          <mxGeometry x="100" y="403" width="40" height="30" as="geometry" />
        </mxCell>
        <mxCell id="PTh-mmywezzikDLuVWZy-8" style="edgeStyle=orthogonalEdgeStyle;rounded=0;orthogonalLoop=1;jettySize=auto;html=1;entryX=0;entryY=0.5;entryDx=0;entryDy=0;" edge="1" parent="1" source="PTh-mmywezzikDLuVWZy-1" target="O_YwxqwIbAvKUzlaajwg-14">
          <mxGeometry relative="1" as="geometry" />
        </mxCell>
        <mxCell id="PTh-mmywezzikDLuVWZy-1" value="print[array2]" style="shape=parallelogram;perimeter=parallelogramPerimeter;whiteSpace=wrap;html=1;fixedSize=1;" vertex="1" parent="1">
          <mxGeometry x="414" y="255" width="120" height="60" as="geometry" />
        </mxCell>
        <mxCell id="PTh-mmywezzikDLuVWZy-15" style="edgeStyle=orthogonalEdgeStyle;rounded=0;orthogonalLoop=1;jettySize=auto;html=1;entryX=1;entryY=1;entryDx=0;entryDy=0;" edge="1" parent="1" source="PTh-mmywezzikDLuVWZy-6" target="O_YwxqwIbAvKUzlaajwg-6">
          <mxGeometry relative="1" as="geometry" />
        </mxCell>
        <mxCell id="PTh-mmywezzikDLuVWZy-6" value="i++" style="rounded=0;whiteSpace=wrap;html=1;" vertex="1" parent="1">
          <mxGeometry x="320" y="340" width="70" height="40" as="geometry" />
        </mxCell>
        <mxCell id="PTh-mmywezzikDLuVWZy-14" value="No" style="text;html=1;align=center;verticalAlign=middle;resizable=0;points=[];autosize=1;strokeColor=none;fillColor=none;" vertex="1" parent="1">
          <mxGeometry x="300" y="398" width="40" height="30" as="geometry" />
        </mxCell>
      </root>
    </mxGraphModel>
  </diagram>
</mxfile>
